<svg xmlns="http://www.w3.org/2000/svg">
    <symbol
        id="logo-fc"
    >
        <path d="M2.5058 10.0045C2.44316 10.0045 1.06497 10.0045 0.438515 10.0045C0.104408 10.0045 0 9.87926 0 9.56603C0 8.73077 0 7.87462 0 7.03935C0 6.70524 0.12529 6.60084 0.438515 6.60084H2.5058C2.5058 6.53819 2.5058 5.32705 2.5058 4.76325C2.5058 3.92798 2.65197 3.13448 3.06961 2.40362C3.50812 1.65188 4.13457 1.15072 4.92807 0.858376C5.45012 0.670441 5.97216 0.586914 6.53596 0.586914H8.58237C8.87471 0.586914 9 0.712204 9 1.00455V3.38506C9 3.6774 8.87471 3.80269 8.58237 3.80269C8.01856 3.80269 7.45476 3.80269 6.89095 3.82357C6.32715 3.82357 6.0348 4.09504 6.0348 4.67972C6.01392 5.30617 6.0348 5.91174 6.0348 6.55907H8.45708C8.79118 6.55907 8.91647 6.68436 8.91647 7.01847V9.54515C8.91647 9.87926 8.81207 9.98367 8.45708 9.98367C7.70534 9.98367 6.09745 9.98367 6.0348 9.98367V16.7911C6.0348 17.1461 5.93039 17.2714 5.55452 17.2714C4.67749 17.2714 3.82135 17.2714 2.94432 17.2714C2.63109 17.2714 2.5058 17.1461 2.5058 16.8329C2.5058 14.6403 2.5058 10.0672 2.5058 10.0045Z" fill="#F7F7EE"/>
    </symbol>

    <symbol
        id="logo-tw"
    >
        <path d="M17 1.65814C16.3678 1.93545 15.6942 2.11926 14.9919 2.20851C15.7144 1.77714 16.2658 1.09926 16.5251 0.282199C15.8514 0.683824 15.1077 0.967512 14.3151 1.12582C13.6754 0.444762 12.7638 0.0229492 11.7693 0.0229492C9.83981 0.0229492 8.28644 1.58907 8.28644 3.50901C8.28644 3.78526 8.30981 4.05089 8.36719 4.30376C5.46975 4.16245 2.90594 2.77376 1.18362 0.658324C0.882937 1.18001 0.706563 1.77714 0.706563 2.41995C0.706563 3.62695 1.32812 4.69689 2.25463 5.31632C1.69469 5.3057 1.14538 5.14314 0.68 4.88707C0.68 4.8977 0.68 4.91151 0.68 4.92532C0.68 6.61895 1.88806 8.0257 3.47225 8.34976C3.18856 8.42732 2.87937 8.46451 2.5585 8.46451C2.33538 8.46451 2.11012 8.45176 1.89869 8.40501C2.35025 9.7852 3.63163 10.7999 5.15525 10.8328C3.9695 11.7604 2.46394 12.3193 0.834063 12.3193C0.54825 12.3193 0.274125 12.3065 0 12.2714C1.54381 13.267 3.37344 13.8354 5.3465 13.8354C11.7597 13.8354 15.266 8.52295 15.266 3.91807C15.266 3.76401 15.2607 3.61526 15.2533 3.46757C15.9449 2.9767 16.5261 2.36364 17 1.65814Z" fill="#F7F7EE"/>
    </symbol>

    <symbol
        id="logo-lk"
    >
        <path d="M14.9963 15.4291V15.4285H15V9.90996C15 7.21025 14.4247 5.13062 11.3004 5.13062C9.79839 5.13062 8.79045 5.96322 8.37897 6.75257H8.33552V5.38265H5.37317V15.4285H8.45779V10.4542C8.45779 9.14444 8.70356 7.87797 10.3092 7.87797C11.8912 7.87797 11.9148 9.37265 11.9148 10.5382V15.4291H14.9963Z" fill="#F7F7EE"/>
        <path d="M0.223877 5.35474H3.35821V15.2055H0.223877V5.35474Z" fill="#F7F7EE"/>
        <path d="M1.79104 0.429199C0.802303 0.429199 0 1.22776 0 2.21189C0 3.19602 0.802303 4.01129 1.79104 4.01129C2.77979 4.01129 3.58209 3.19602 3.58209 2.21189C3.58147 1.22776 2.77916 0.429199 1.79104 0.429199V0.429199Z" fill="#F7F7EE"/>
    </symbol>
</svg>
