<svg xmlns="http://www.w3.org/2000/svg" width="315" height="25" fill="none">
  <path fill="#4F9CF9" d="M293.764 12.751c-.428.02-.861.034-1.28.064-.273.019-.389-.036-.571-.065-.061-.01-.126-.03-.182-.028-.424.02-.848.043-1.272.066-.129.048-.212.114-.411.137-.194.023-.423.023-.64.034a188.5 188.5 0 0 1-.856.04c-.143.007-.26.03-.307.075-.009.008.086.027.138.038.173.038.342.08.532.11.182.027.407-.018.601.017.437.079.442.077.775.062.285-.014.571-.028.856-.039.056-.002.121.017.182.027.181.027.298.09.567.066.203-.019.428-.022.64-.032.177.036.341.077.532.106.177.028.229.049.134.085a1.112 1.112 0 0 1-.368.05c-.143.002-.285.013-.428.02-.074.003-.143.005-.212.01-.273.013-.273.013-.77-.067-.195-.031-.415.012-.601-.018-.126-.02-.234-.05-.355-.071a1.122 1.122 0 0 0-.199-.008c-.216.01-.433.015-.64.032-.147.011-.234.046-.216.081.004.014.108.034.168.035.139.003.286-.015.42-.006.13.009.264.034.359.061.195.058.415.007.601.022.195.016.355.066.541.096.047.008.138-.005.212-.009l.636-.025c.177.037.367.07.527.11.29.076.602.104.978.068.212-.02.42-.012.588.037.173.05.372.045.593.035.203-.01.411-.038.618-.003.45.078.455.082.987.051.16-.008.281-.01.402.018.112.026.234.049.35.074l.641-.028c.272-.013.423.004.488.074.039.043.057.082.152.11.112.036.233.034.398.024.155-.008.268-.022.333-.067a.53.53 0 0 1 .125-.052c.039-.01.1-.028.134-.026a.515.515 0 0 1 .173.035c.212.152.212.153.429.197.238.049.484.092.7.148.195.048.39.027.602.027.16 0 .264.033.251.065-.009.02-.07.047-.122.05-.424.024-.852.046-1.28.063-.052.003-.117-.02-.177-.031-.121-.023-.23-.058-.359-.065-.13-.008-.282.011-.424.017-.143.007-.294.023-.424.013s-.234-.047-.355-.07c-.056-.012-.134-.028-.182-.024a2.177 2.177 0 0 1-.774-.067.817.817 0 0 0-.19-.016c-.502.021-.999.046-1.501.07-.203.01-.368-.034-.411-.107-.022-.042-.065-.083-.065-.124 0-.076-.238-.117-.411-.108-.285.012-.575.022-.856.041-.23.015-.424 0-.58-.045-.182-.051-.389-.041-.597-.028-.156.01-.199.052-.19.156.008.084-.065.11-.346.124-.355.017-.714.035-1.073.049-.056.002-.121-.02-.178-.03-.121-.023-.229-.06-.359-.067-.129-.009-.281.01-.423.018-.143.006-.295.024-.424.015-.13-.009-.238-.047-.355-.07-.056-.012-.126-.028-.182-.026-.285.01-.571.026-.856.04-.32.014-.32.014-.775-.063-.207-.035-.415-.008-.618.002-.216.01-.42.015-.588-.035a1.144 1.144 0 0 0-.372-.046c-.359.015-.714.034-1.073.049a.815.815 0 0 1-.19-.015 2.333 2.333 0 0 0-.775-.068c-.277.023-.575.024-.852.045-.151.011-.221.051-.19.083a.39.39 0 0 0 .168.035c.139.001.29-.018.42-.01.268.015.402.12.753.091.207-.017.424-.024.64-.029.056 0 .117.023.177.036.173.033.325.077.576.055.207-.018.428-.023.64-.033.337-.016.337-.015.774.061.208.037.415.008.619 0 .151-.007.294-.02.415-.002.186.026.32.086.549.083.217-.004.428-.022.645-.028a1.13 1.13 0 0 1 .367.05c.113.034.234.05.381.042.212-.01.428-.023.645-.03.06 0 .129.01.186.02.121.023.237.05.354.073.212-.007.429-.01.636-.025.16-.01.273-.006.402.02.165.033.299.093.567.064.134-.013.29-.01.424-.022a.916.916 0 0 1 .394.027c.22.072.497.073.783.046.311-.03.545.005.778.06.247.057.247.056.437.195.056.04.216.059.35.052.225-.013.42-.007.585.04.173.052.38.046.592.032.281-.019.562-.035.792.038.112.035.233.044.385.035.428-.023.861-.037 1.28-.064.255-.018.402.022.575.056.234.047.489.088.489.187 0 .016.061.035.113.048.112.026.233.048.35.073.173.038.342.07.58.05.207-.017.428-.022.64-.033.212-.011.407-.018.597.03.22.054.454.105.705.145.177.029.411-.02.601.019.117.024.229.051.355.071.052.01.134.003.203 0 .143-.005.29-.008.428-.02a1.23 1.23 0 0 1 .403.017c.112.026.225.062.354.07.195.011.411-.039.606.019.099.029.225.056.355.065.13.009.281-.01.419-.009.061 0 .134.02.169.036.022.01-.009.033-.039.046a.501.501 0 0 1-.151.037c-.429.023-.857.041-1.285.063-.255.012-.255.012-.77-.067a1.973 1.973 0 0 0-.407-.006c-.203.011-.411.033-.622.01-.277-.085-.619-.093-.982-.06-.152.014-.29.014-.403-.01-.238-.048-.489-.092-.7-.148-.165-.044-.243-.048-.312.013-.022.018-.043.038-.039.056.026.063.074.124.1.187.008.017-.026.037-.048.056-.069.053-.16.049-.311.005a1.548 1.548 0 0 0-.576-.053c-.207.018-.432.015-.64.034a2.263 2.263 0 0 1-.774-.066.835.835 0 0 0-.191-.015c-.644.029-1.284.061-1.929.09a1.082 1.082 0 0 1-.372-.046 1.12 1.12 0 0 0-.376-.046c-.571.027-1.142.05-1.713.083a1.78 1.78 0 0 1-.58-.046 1.276 1.276 0 0 0-.385-.039c-.164.004-.281.016-.363.053-.078.035-.022.056.151.084.186.03.359.068.537.104.142-.005.285-.015.424-.014.06 0 .116.022.177.035.173.036.333.073.58.052.207-.017.428-.02.64-.032.294-.014.294-.014.77.065.121.02.251.019.406.008a.906.906 0 0 1 .368.046c.039.015.026.04-.056.123 0 .061.091.034.121-.006.048-.058-.043-.077-.216-.046-.121.023-.182.056-.152.082.018.014.1.031.247-.03.381-.075.67-.084.947-.104.165-.011.268-.006.398.026.156.039.312.08.567.06.277-.022.571-.025.852-.044.259-.017.394.038.558.07.199.04.42-.005.601.018.191.023.325.078.545.088.32-.034.524.029.766.07.19.031.415.004.618-.01.23-.015.42-.001.58.044.182.051.385.04.593.029.484-.025.501-.03.783.04.203.05.398.027.601.021.177.034.35.07.536.1.048.008.139-.005.212-.009l.64-.03c.143-.006.295-.025.424-.017.13.009.238.045.355.069.117.024.238.047.351.072.173.038.337.07.579.05.208-.016.424-.02.64-.032.273-.014.264-.01.77.065.273.041.554-.009.831-.014.138-.002.272.012.367.048.039.015.026.04.039.061-.713.034-1.431.063-2.137.104-.272.017-.415-.029-.562-.066-.242-.06-.562.028-.791-.05a1.439 1.439 0 0 0-.576-.05c-.138.012-.285.011-.428.022-.363.028-.696.03-.986-.057-.1-.03-.242-.047-.346-.076a1.237 1.237 0 0 0-.381-.042c-.644.03-1.285.06-1.925.093-.056.002-.112.02-.16.035-.121.035-.082.062.113.085.064.007.116.024.177.036.117.024.225.062.355.07.129.01.281-.008.424-.015.142-.006.294-.025.424-.017.129.008.237.045.358.067.057.012.126.03.182.03.286-.008.567-.022.852-.033.178.034.329.082.541.094.134.007.277-.007.415-.004.061.001.139.02.169.036.017.01-.039.035-.082.048-.165.047-.389.039-.593.054a1.7 1.7 0 0 1-.588-.038 1.156 1.156 0 0 0-.376-.044c-.36.017-.714.035-1.073.05a1.058 1.058 0 0 1-.191-.018c-.454-.077-.454-.08-.774-.063-.471.024-.471.024-.787-.043-.061-.012-.126-.036-.177-.035-.502.02-1 .04-1.497.07a1.211 1.211 0 0 1-.398-.025 1.773 1.773 0 0 0-.355-.066c-.134-.008-.281.011-.424.018-.142.006-.294.022-.419.012-.13-.01-.243-.045-.355-.07a1.422 1.422 0 0 0-.402-.015c-.493.029-.498.025-.987-.053a1.04 1.04 0 0 0-.19-.016c-.359.015-.714.034-1.073.049a.959.959 0 0 1-.367-.047c-.039-.015-.026-.04-.052-.088-.03-.012.004.008.013.027.065-.002.143 0 .19-.01.121-.024.182-.055.151-.081a.38.38 0 0 0-.151-.032c-.095 0-.177.028-.203.095-.273.042-.563.05-.844.07a1.125 1.125 0 0 1-.398-.026 1.556 1.556 0 0 0-.571-.059c-.277.023-.571.027-.856.044-.329.02-.472-.092-.748-.09-.286.003-.571.024-.857.039-.251.012-.251.012-.77-.069-.19-.03-.415.014-.601-.017-.126-.02-.234-.05-.355-.072a1.139 1.139 0 0 0-.199-.006c-.359.015-.722.025-1.068.052a2.773 2.773 0 0 1-.974-.076c-.354.014-.713.021-1.064.045-.255.018-.402-.024-.575-.058-.061-.01-.112-.03-.177-.035-.065-.005-.143.005-.212.01-.286.013-.58.02-.857.042-.342.029-.471-.074-.735-.087-.178.062-.273.146-.623.152-.286.005-.571.025-.857.039l-.428.02c-.229.011-.337.06-.29.135.026.041.048.083.07.124.043.074-.065.137-.247.145-.502.024-.999.05-1.501.07a1.094 1.094 0 0 1-.372-.048 1.12 1.12 0 0 0-.376-.043c-.502.024-1 .049-1.501.07a.926.926 0 0 1-.186-.02c-.121-.022-.238-.049-.355-.072-.285.01-.567.018-.848.033-.454.023-.454.024-.787-.045-.061-.012-.121-.036-.177-.035-.217.005-.429.018-.645.03-.636.032-.636.032-.822-.006-.169-.035-.32-.078-.575-.058-.277.023-.571.03-.857.043-.212.009-.424.019-.636.021-.056.002-.116-.022-.177-.035a1.728 1.728 0 0 0-.58-.049c-.138.013-.285.015-.428.022-.372.017-.372.017-.982-.058a1.13 1.13 0 0 0-.194-.012c-.502.022-1 .047-1.501.068a1.45 1.45 0 0 1-.195-.01c-.683-.073-.683-.073-1.41-.038-.277.012-.286.017-.575-.05a1.304 1.304 0 0 0-.39-.033c-.571.03-1.146.05-1.713.085-.255.015-.402-.023-.575-.056-.061-.012-.125-.037-.177-.035-.571.023-1.142.052-1.713.076-.052.002-.117-.023-.178-.034-.117-.022-.229-.056-.359-.064-.134-.007-.281.012-.428.018-.359.016-.359.015-.774-.059-.057-.01-.13-.024-.186-.021-.571.025-1.147.046-1.713.082a2.494 2.494 0 0 1-.775-.069.825.825 0 0 0-.19-.013c-.644.028-1.285.061-1.929.09a1.13 1.13 0 0 1-.372-.048c-.173-.051-.376-.045-.593-.034-.497.027-.502.026-.796-.035-.06-.012-.112-.029-.177-.035-.061-.006-.138-.002-.203 0l-.857.04c-.285.014-.575.022-.856.043-.346.026-.511-.055-.753-.093-.355.016-.718.027-1.068.053-.269.02-.394-.035-.571-.064-.061-.01-.126-.031-.182-.029-.645.028-1.289.058-1.929.092a1.293 1.293 0 0 1-.39-.033c-.289-.068-.302-.065-.787-.04-.212.011-.415.021-.597-.03a1.721 1.721 0 0 0-.584-.043c-.281.02-.571.03-.856.042-.286.013-.571.032-.857.039-.229.006-.367-.053-.549-.083a1.137 1.137 0 0 0-.199-.008c-.286.012-.58.02-.856.042-.338.026-.524-.043-.762-.083a1.09 1.09 0 0 0-.203 0l-1.501.071-.537-.1-.856.039c-.216.01-.437.014-.64.032-.264.026-.394-.033-.571-.062-.061-.01-.126-.031-.182-.029a50.09 50.09 0 0 0-1.073.05c-.337.021-.471-.091-.748-.09-.285.001-.58.018-.856.04a2.3 2.3 0 0 1-.775-.068.82.82 0 0 0-.19-.015c-.359.015-.714.034-1.073.05a1.263 1.263 0 0 1-.194-.012c-.684-.074-.684-.075-.982-.06-.212.01-.429.022-.645.029a.95.95 0 0 1-.19-.02c-.45-.076-.45-.077-.775-.062l-.856.041-.536-.1c-.355.017-.719.03-1.069.052-.164.01-.272.006-.398-.025-.156-.038-.311-.082-.571-.06-.277.022-.571.024-.852.043-.337.023-.476-.091-.748-.09-.286.001-.58.018-.857.04a2.293 2.293 0 0 1-.774-.068.825.825 0 0 0-.19-.014c-.788.036-1.571.072-2.358.111-.484.024-.484.025-1.406-.044a1.765 1.765 0 0 0-.199-.007c-.285.01-.579.02-.856.041-.338.026-.524-.041-.762-.083-.051-.009-.134-.004-.203-.001-.216.009-.428.02-.644.03l-.857.041-.536-.099c-.355.017-.718.025-1.069.052-.268.02-.393-.033-.571-.063-.06-.01-.125-.031-.181-.03-.645.028-1.289.056-1.93.092-.263.015-.385-.042-.562-.07-.06-.01-.13-.026-.186-.023-.428.017-.856.039-1.285.06-.242.013-.242.013-.77-.065a1.079 1.079 0 0 0-.19-.015c-1.358.063-2.712.129-4.07.192a1.08 1.08 0 0 1-.372-.047 1.124 1.124 0 0 0-.377-.045c-.571.026-1.146.05-1.713.083a1.78 1.78 0 0 1-.579-.047 1.17 1.17 0 0 0-.385-.037c-.286.015-.571.027-.857.041l-.856.041c-.286.014-.576.022-.857.043-.346.026-.514-.051-.752-.09l-1.281.058c-.571.026-1.142.055-1.713.08-.052.002-.117-.02-.177-.032-.177-.03-.307-.075-.571-.061-1.281.066-2.57.123-3.854.188-.268.014-.385-.04-.567-.069-.06-.009-.13-.026-.186-.024-.714.031-1.427.067-2.141.1-.29.014-.29.014-.774-.063-.057-.01-.13-.02-.191-.018-.93.043-1.855.088-2.785.132a1.129 1.129 0 0 1-.377-.046 1.093 1.093 0 0 0-.372-.046c-.856.04-1.717.079-2.569.123-.23.012-.42.001-.584-.044a1.147 1.147 0 0 0-.381-.039c-1.285.062-2.569.12-3.854.186a1.777 1.777 0 0 1-.575-.053 1.28 1.28 0 0 0-.39-.034.992.992 0 0 0-.354.058c-.117.049-.191.11-.468.114-.285.004-.575.019-.856.04-.268.021-.394-.035-.562-.069a1.49 1.49 0 0 0-.403-.016.859.859 0 0 0-.324.071c-.19.085-.208.085-.441.031a1.371 1.371 0 0 0-.377-.046c-.571.025-1.142.053-1.713.081-.328.017-.333.02-.579-.043a1.204 1.204 0 0 0-.381-.04c-1.57.076-3.14.149-4.71.228a2.008 2.008 0 0 1-.58-.052c-.056-.012-.113-.03-.177-.035-.065-.005-.139 0-.208.003-1.142.054-2.288.105-3.426.165-.26.014-.398-.026-.575-.059-.061-.011-.113-.029-.178-.034-.065-.003-.142.005-.212.01-1.142.053-2.288.104-3.426.165-.272.013-.389-.04-.566-.067-.061-.01-.126-.029-.182-.026-.359.014-.714.032-1.073.049-.856.041-1.713.08-2.569.122-.329.017-.472-.095-.749-.09-.359.006-.713.032-1.072.05-.286.013-.571.025-.857.04-.281.014-.281.014-.982-.058-.06-.007-.134-.015-.194-.013-1 .046-2.003.093-2.998.143-.229.011-.42.005-.584-.041a1.156 1.156 0 0 0-.381-.042c-1.501.072-2.997.143-4.498.213a.926.926 0 0 1-.186-.02c-.121-.022-.238-.049-.355-.072-.087.028-.199.055-.255.087-.078.044-.182.057-.346.064a1.254 1.254 0 0 1-.398-.027 1.744 1.744 0 0 0-.571-.06c-1.57.08-3.141.151-4.711.229-.259.012-.38-.043-.562-.072-.061-.008-.13-.022-.186-.02-.645.029-1.285.06-1.929.09-1.787.086-3.573.167-5.356.257a2.565 2.565 0 0 1-.774-.069.826.826 0 0 0-.19-.015l-7.497.356a1.13 1.13 0 0 1-.372-.046 1.12 1.12 0 0 0-.376-.044l-3.426.163c-.285.014-.29.015-.584-.045-.06-.013-.125-.037-.173-.034a.595.595 0 0 0-.264.08c-.069.045-.177.058-.337.066a1.29 1.29 0 0 1-.398-.025c-.16-.037-.307-.074-.567-.061-3.283.16-6.566.314-9.85.474-.263.012-.384-.04-.566-.07-.06-.008-.121-.02-.186-.023-.07-.003-.143.005-.212.009l-16.065.764c-.32.015-.316.015-.666.13-.044.014-.1.033-.16.035-1.64.08-3.284.158-4.927.236-.714.034-1.428.069-2.142.101-.255.012-.255.012-.865.147-.052.011-.112.026-.173.029-2.855.136-5.71.273-8.569.407-.225.01-.407.033-.51.093a.677.677 0 0 1-.312.075c-1.998.095-3.997.192-6 .284a1.31 1.31 0 0 0-.497.1c-.039.017-.074.037-.13.05-.052.01-.13.015-.194.018-1.713.082-3.426.166-5.144.243-.255.012-.359.058-.484.107-.043.016-.074.039-.13.05-.056.01-.138.01-.208.013l-4.282.204c-.277-.006-.337.066-.471.11-.048.015-.083.035-.139.045-.06.01-.138.009-.212.011-1.142.054-2.284.112-3.43.162-.264.011-.316.075-.459.119-.047.014-.095.035-.15.039-.715.036-1.428.07-2.142.103-.238.01-.238.01-.658.134a.76.76 0 0 1-.164.032c-1.068.053-2.141.103-3.214.154a.618.618 0 0 0-.303.08.64.64 0 0 1-.307.076c-.856.041-1.713.084-2.57.121-.237.01-.393.042-.497.098a.729.729 0 0 1-.324.071c-.857.04-1.713.084-2.574.12-.25.01-.38.052-.484.105-.083.042-.178.057-.338.065-1.57.072-3.145.145-4.71.225-.264.014-.398-.03-.572-.061-.246-.044-.475-.092-.475-.19 0-.014-.074-.032-.126-.044-.385-.094-.385-.094-.445-.195-.035-.06-.074-.124-.104-.186-.056-.103-.195-.13-.593-.11-.143.006-.285.015-.428.02-.212.008-.372-.033-.41-.108-.023-.041-.049-.083-.07-.124.216-.01.212-.012.592-.163.16-.064.16-.064-.147-.128-.116-.024-.229-.05-.354-.073a.951.951 0 0 0-.19-.013c-.36.015-.714.032-1.069.05-.571.027-.571.027-1.15-.1-.048-.01-.122-.03-.113-.04.047-.046.164-.066.311-.07.216-.008.428-.02.64-.03.143-.007.286-.015.429-.02.134-.049.272-.095.398-.144.199-.075.199-.077-.074-.13-.173-.035-.359-.066-.536-.099l-.64.03c-.269.011-.377-.012-.446-.094-.06-.071.013-.133.22-.148.213-.015.412-.025.52-.089.104-.061.285-.085.51-.09.143-.004.286-.012.428-.02.186-.01.286-.074.247-.145-.022-.047-.065-.085-.234-.095-.748-.044-.757-.043-1.129-.128-.034-.008-.06-.03-.047-.042a.226.226 0 0 1 .12-.05c.498-.027.996-.052 1.493-.071.165-.006.286-.015.342-.062.078-.063.043-.122-.108-.166a.699.699 0 0 0-.178-.03c-.57.022-1.137.051-1.708.074a.402.402 0 0 1-.169-.035c-.043-.03.022-.07.173-.084.2-.02.402-.02.537-.083.186-.09.415-.17.622-.256.035-.015.091-.044.078-.046-.108-.028-.233-.049-.346-.075-.19-.044-.19-.106-.147-.164.035-.048.165-.067.325-.067.069 0 .155 0 .212-.011.147-.028.194-.063.12-.089a.55.55 0 0 0-.172-.034c-.926.041-1.856.082-2.777.133-.273.015-.398-.033-.563-.066a1.146 1.146 0 0 0-.398-.018.77.77 0 0 1-.38-.034c-.074-.034.056-.063.406-.095.065-.006.139-.01.186-.023.502-.135.502-.136.848-.154.337-.016.338-.017.515-.09.082-.034.173-.068.25-.103.031-.014.083-.038.066-.046a.899.899 0 0 0-.377-.039c-.337.021-.735.004-.912.123-.07.045-.178.058-.333.065-1.566.073-3.132.15-4.703.22-.255.012-.371.058-.471.11-.086.042-.182.055-.346.062-.164.008-.294.011-.39-.03-.056-.025-.008-.06.122-.095.186-.05.151-.113.09-.172-.043-.038-.177-.066-.32-.064-.212.005-.415.02-.592-.03-.104-.03-.234-.05-.35-.075-.225-.051-.45-.104-.766-.07-.216-.013-.368-.058-.54-.093-.29-.057-.317-.066-.109-.128.234-.069.052-.159.182-.226.138-.073.328-.137.497-.205l.126-.05c-.1-.026-.19-.057-.308-.075-.15-.022-.229-.05-.22-.128-.03-.01-.018.018.017.025a.694.694 0 0 0 .182-.007c.121-.024.181-.055.151-.082a.385.385 0 0 0-.151-.03c-.095 0-.177.027-.203.094-.485.052-.987.077-1.489.097-.051.002-.116-.023-.177-.035-.199-.043-.199-.042-.783-.054a.468.468 0 0 1-.173-.037c-.125-.076-.12-.16-.181-.241.112-.053.224-.104.341-.156.234-.104.537-.195.718-.31-.039-.06-.09-.122.1-.172.54-.063.536-.063.683-.123.42-.17.835-.342 1.272-.51.117-.044.117-.067-.09-.086a1.82 1.82 0 0 0-.204-.004c-.217.009-.433.031-.645.026-.212-.003-.367-.059-.54-.092a77.1 77.1 0 0 1-.532-.108c-.204.004-.407.039-.61-.018-.156-.044-.35-.075-.528-.111.134-.095.385-.168.58-.252.177-.076.181-.075.657-.134.225-.028.303-.17.112-.21-.229-.05-.471-.097-.705-.145-.203.004-.41.038-.605-.018a1.624 1.624 0 0 0-.575-.056c-.424.028-.857.042-1.285.064-.147.008-.307.003-.372-.04-.043-.03.082-.071.225-.08.216-.013.41-.028.519-.09.104-.063.294-.082.519-.09a.485.485 0 0 0 .16-.033c.156-.073.329-.135.662-.133.138-.025.212-.056.168-.086a.418.418 0 0 0-.168-.035c-.36.012-.718.025-1.069.047-.164.01-.29.013-.393-.025-.074-.025-.035-.059.103-.095.122-.031.156-.068.148-.11-.022-.1-.152-.128-.567-.122-.299.005-.372-.011-.437-.096-.017-.02-.06-.048-.03-.062.186-.085.307-.19.657-.23.139-.015.286-.015.372-.048.087-.032.165-.07.255-.101.113-.038.19-.073.139-.097-.087-.042-.225-.046-.385-.031-.139.012-.286.014-.428.021-.256.014-.463-.019-.493-.074-.083-.145-.17-.29-.243-.434-.008-.018.013-.04.048-.056.121-.052.25-.102.376-.154.147-.059.38-.047.58-.059.281-.016.281-.015.657-.135.147-.048.403-.029.554-.071.048-.014.121-.037.108-.05a.517.517 0 0 0-.169-.036 1.155 1.155 0 0 0-.198-.007c-.788.036-1.57.075-2.358.11-.134.006-.281-.021-.329-.06-.047-.036-.034-.08-.043-.122.125-.05.268-.099.376-.154.082-.042.178-.061.342-.064.216-.003.428-.018.67-.03.45-.183.892-.374 1.376-.557.195-.074.147-.15.186-.228.04-.073.329-.062.524-.083.155-.018.207-.058.147-.085a.491.491 0 0 0-.173-.035c-.143 0-.286.011-.429.017-.142.007-.307.003-.424.024-.112.02-.186.063-.26.1-.081.04-.19.053-.354.056-.212.002-.424.013-.636.022-.233-.049-.476-.096-.7-.148-.044-.01-.052-.039-.048-.057.009-.05-.056-.08-.2-.103-.12-.02-.22-.049-.332-.074.086-.034.182-.066.25-.103.152-.076.343-.131.671-.129.13-.049.234-.109.403-.143.16-.032.432 0 .553-.074a.694.694 0 0 1 .268-.092c.186-.024.429-.012.537-.082a.639.639 0 0 1 .285-.086c.143-.012.29-.014.394-.038.056-.012.117-.032.117-.05 0-.011-.087-.029-.147-.036a1.065 1.065 0 0 0-.195-.013c-.216.008-.428.021-.645.029-.06.003-.13-.006-.194-.014-.19-.02-.178-.045-.026-.09.151-.044.26-.1.385-.152.138-.008.311-.005.406-.028.16-.04.273-.096.403-.145.142-.007.29-.01.424-.023.056-.005.082-.033.13-.05.086-.03.16-.076.276-.09.19-.023.424-.014.537-.083a.57.57 0 0 1 .285-.086c.338-.005.48-.074.653-.139.13-.048.407-.023.55-.072.095-.032.164-.07.26-.1a.982.982 0 0 1 .185-.023c.355-.019.714-.033 1.069-.053.056-.004.108-.022.151-.037.09-.033.147-.078.26-.1.112-.02.272-.02.41-.027.446-.019.48-.014.684-.12.164-.087.567-.025.7-.12.079-.056.221-.1.477-.107.359-.009.713-.033 1.072-.049.32-.015.316-.015.662-.131.156-.053.385-.045.588-.055.217-.01.416-.026.52-.088.103-.062.294-.082.514-.09.204-.01.433-.003.593-.053.39-.12.385-.122.657-.134l1.285-.061c.286-.014.584-.017.852-.044.195-.02.281-.09.407-.14l1.064-.055c.497-.025 1-.047 1.501-.071.216-.048.247-.153.61-.158.216-.002.428-.019.645-.029.359-.017.713-.04 1.072-.049.273-.006.32-.073.463-.116.048-.015.09-.036.147-.04.562-.035 1.142-.043 1.691-.094.057-.005.108-.031.122-.05.008-.01-.065-.03-.113-.038a.949.949 0 0 0-.19-.017l-5.36.253c-.25.012-.25.011-.86.149a1.138 1.138 0 0 1-.178.027c-.285.015-.575.024-.856.043-.23.015-.42 0-.584-.045a1.317 1.317 0 0 0-.385-.04 1.154 1.154 0 0 0-.368.051c-.125.047-.19.107-.454.12-1.216.053-2.431.113-3.642.17-.17-.017-.251-.043-.208-.074a.265.265 0 0 1 .13-.047c.497-.026.999-.049 1.496-.074.07-.003.165 0 .204-.013.19-.057.26-.148.618-.155.208-.003.42-.022.619-.04.056-.005.108-.03.121-.05.004-.01-.065-.029-.117-.037-.19-.037-.41.007-.601-.018A.56.56 0 0 1 14.149 8c-.008-.014.065-.037.117-.05a.946.946 0 0 1 .177-.028c.571-.029 1.142-.059 1.713-.081.234-.01.398-.04.502-.098a.706.706 0 0 1 .32-.071c1-.047 1.999-.098 3.002-.14.251-.01.38-.052.485-.106.082-.043.177-.058.337-.065 1.432-.065 2.855-.138 4.287-.2.264-.012.342-.066.476-.112.047-.016.077-.037.138-.047.06-.01.138-.008.212-.01 1.142-.055 2.284-.112 3.43-.162.268-.012.32-.074.459-.118.047-.014.09-.037.147-.04.856-.043 1.713-.083 2.57-.124l1.712-.082c.281-.012.281-.014.662-.133a.713.713 0 0 1 .16-.033c1.644-.08 3.283-.157 4.927-.236a.638.638 0 0 0 .307-.078.635.635 0 0 1 .303-.077c1.285-.063 2.57-.124 3.858-.183.234-.01.398-.04.502-.097a.706.706 0 0 1 .32-.071c1.285-.06 2.57-.124 3.859-.182.246-.011.367-.054.489-.104.043-.017.078-.046.13-.049.64-.035 1.276-.071 1.92-.095.268-.01.359-.063.467-.113.087-.04.186-.054.35-.059.36-.01.714-.032 1.065-.053.052-.004.117-.032.12-.05.01-.032-.09-.054-.254-.066l-5.144.245c-.28.013-.28.013-.661.132a.706.706 0 0 1-.165.034c-1.644.08-3.283.157-4.927.236a.64.64 0 0 0-.307.077.634.634 0 0 1-.303.078c-1.57.075-3.14.152-4.715.223-.233.01-.398.039-.501.097a.706.706 0 0 1-.32.071c-1.502.07-2.998.144-4.504.212-.151.006-.263-.03-.255-.064.005-.018.07-.046.121-.049.783-.041 1.562-.084 2.35-.115.263-.01.34-.065.475-.112.043-.016.078-.037.134-.046.06-.01.139-.009.212-.011 1.856-.09 3.712-.18 5.572-.263.268-.013.32-.074.458-.118.048-.015.09-.038.147-.04.571-.03 1.142-.057 1.713-.083l3.002-.143c.29-.014.29-.014.662-.131a.65.65 0 0 1 .16-.034l7.929-.379a.638.638 0 0 0 .307-.077.663.663 0 0 1 .303-.08c3.573-.17 7.142-.34 10.715-.508.233-.011.397-.038.501-.096a.706.706 0 0 1 .32-.073l11.788-.561c2.643-.126 5.286-.254 7.929-.376.242-.012.372-.05.493-.102.039-.017.078-.046.13-.049.566-.031 1.133-.06 1.7-.089l.532.1c.134-.047.263-.096.398-.144.856-.036 1.7-.092 2.565-.11.056-.001.116.023.177.035.402.08.632.073.887-.032.09-.038.168-.072.307-.078.428-.023.86-.038 1.285-.064.229-.014.42-.001.584.044.116.033.238.046.38.039.788-.038 1.57-.074 2.358-.114.056-.003.108-.024.151-.039.091-.033.169-.068.255-.102.117.022.247.038.342.066.121.032.234.032.398.023 3.14-.151 6.285-.299 9.426-.452.268-.012.385.04.566.068.061.01.121.022.186.025.07.002.143-.005.212-.009l7.073-.337c.311-.015.311-.015.774.063.056.01.13.021.19.017 1.073-.049 2.146-.101 3.214-.151.139-.007.256.013.381.042.247.057.264.057.445-.026a.914.914 0 0 1 .321-.074 1.49 1.49 0 0 1 .402.014c.173.031.298.084.562.07 1.142-.059 2.289-.108 3.426-.168.26-.014.398.029.571.06.061.011.117.029.182.033.065.004.143-.005.212-.009 1.427-.068 2.859-.134 4.282-.207.268-.014.385.04.567.068.06.01.13.027.186.025.856-.039 1.717-.08 2.574-.122.307-.015.307-.013.774.063.056.01.13.02.19.018l3.002-.142c.307-.015.307-.015 1.194.05.065.005.134.013.199.01 1.142-.054 2.288-.106 3.43-.164.23-.011.42-.001.584.044.117.032.238.046.381.039 1.285-.062 2.574-.12 3.854-.186.247-.012.407.015.58.052.056.012.112.03.177.035.065.005.139 0 .208-.004 1.285-.061 2.574-.12 3.854-.185.259-.014.398.028.571.06.061.011.125.034.177.032.502-.021 1.004-.04 1.501-.071.268-.018.385.04.567.067.06.01.13.028.186.026 1.073-.05 2.146-.1 3.214-.153.151-.008.264.003.385.036.16.044.346.061.58.048.497-.03.999-.05 1.501-.073.294-.014.294-.014 1.193.051.065.005.135.013.199.01.857-.04 1.718-.079 2.57-.122.229-.013.419-.002.584.043.117.033.233.047.38.04l2.358-.113c.285-.014.571-.038.856-.038.208.001.36.061.546.091.051.01.138 0 .207-.003.999-.048 2.003-.092 2.998-.146.259-.013.398.03.571.06.06.012.125.034.177.033.359-.014.714-.033 1.073-.049.428-.02.861-.035 1.285-.063.346-.022.475.087.752.09.212.004.428-.017.64-.027.429-.02.857-.042 1.285-.06.152-.006.268-.026.316-.071.009-.01-.065-.028-.112-.04-.576-.127-.576-.127-1.155-.1-.36.018-.714.036-1.073.05-.061.003-.13-.007-.191-.014-.173-.022-.155-.047-.008-.092s.259-.1.385-.151l.528.097.428-.02c.714-.032 1.427-.066 2.141-.096.052-.003.117.022.177.035.173.036.329.067.58.054.64-.037 1.285-.063 1.925-.094.281-.014.281-.014.774.064.056.008.13.018.19.016.645-.029 1.285-.06 1.93-.09.138-.007.272.01.372.046.039.015.03.04.194.246.511.166.861.149 1.216.134.151-.007.285-.013.385-.038.052-.014.117-.034.117-.05 0-.013-.095-.033-.156-.035-.428-.025-.835.027-1.255.039-.194.005-.363-.04-.397-.11a.48.48 0 0 0-.035-.062c-.013-.02-.022-.041-.035-.061-.168-.007-.268.016-.341.059a.761.761 0 0 1-.264.094c-.117.02-.277.016-.42.022-.138.006-.29.023-.419.014-.13-.01-.234-.046-.355-.069-.056-.011-.126-.028-.182-.025-.497.021-.99.043-1.483.07-.26.015-.39-.038-.554-.07-.13-.025-.26-.019-.281.039-.057.138.142.195.584.169.363-.023.692-.026.977.059.039.011.13.016.186.014.355-.015.705-.034 1.06-.05.065-.002.134.003.195.008.882.068.882.07 1.181.054.142-.007.281-.014.268-.204.272-.204.705-.218 1.124-.248.273-.019.39.036.567.065.061.01.126.03.182.028.93-.042 1.855-.086 2.781-.132.156-.008.268 0 .389.033.156.04.329.067.576.052.493-.03.995-.049 1.496-.074.256-.012.256-.012.77.065.057.01.13.02.191.017.501-.022.999-.048 1.496-.07a1.08 1.08 0 0 1 .372.045 1.1 1.1 0 0 0 .372.045c.502-.023 1-.048 1.497-.07.061-.003.134.006.19.015.528.077.528.077.77.065.355-.02.718-.028 1.069-.053.342-.025.519.048.752.088.641-.029 1.285-.053 1.921-.088.26-.015.398.026.571.059.061.011.121.035.177.034.217-.005.429-.019.641-.029l.64-.03c.242.036.402.121.748.093.208-.018.428-.022.64-.032l.641-.03c.142-.006.289-.01.428-.021.255-.019.38.043.562.07.061.009.13.024.186.021.428-.017.861-.032 1.281-.061.324-.023.545.015.774.068.047.011.13.017.19.015.502-.022.999-.048 1.497-.07.134-.007.264.013.372.046.112.034.238.05.376.044.498-.023.999-.048 1.497-.07a.947.947 0 0 1 .19.017c.485.078.485.08.77.064l.212-.01c.355-.018.723-.024 1.069-.054.398-.034.687.009.969.08.354-.015.718-.023 1.064-.049.259-.018.398.03.571.06.06.012.125.034.177.032.502-.021 1.003-.04 1.497-.071.268-.018.385.038.566.067.061.01.126.028.182.025.285-.01.571-.025.857-.039.333-.016.332-.015.774.062.207.036.415.007.618-.001.217-.01.42-.018.593.033.108.033.238.053.372.048.285-.011.575-.023.856-.041.225-.015.42-.005.584.041.117.033.238.049.381.041l1.925-.09a.828.828 0 0 1 .186.02c.121.023.238.048.355.073.281-.011.571-.016.847-.034.295-.018.563-.024.792.045a.595.595 0 0 0 .173.035c.216-.005.428-.017.64-.027l.64-.03c.247.03.403.121.749.092.208-.017.428-.021.64-.031l.64-.03c.069-.003.147-.009.208-.004.065.005.121.023.177.035.173.037.333.073.58.052.208-.018.428-.022.64-.033.29-.014.29-.014.77.065.195.033.415-.01.601.018.126.018.234.05.355.071.052.009.134.013.195.01.285-.011.575-.022.856-.041.229-.015.42 0 .58.045.117.032.233.046.38.039.714-.035 1.428-.065 2.137-.104.243-.014.437.007.571.052.23.078.554-.013.792.05.147.038.294.083.562.064.493-.032.995-.05 1.493-.072l.536.101.856-.04.641-.03c.069-.002.142-.007.207-.001s.117.022.178.035c.298.061.298.063.791.037.212-.01.416-.018.593.032.164.046.359.055.584.041a69.48 69.48 0 0 1 1.285-.061c.134-.007.259.015.372.047.168.052.376.047.588.033.281-.018.558-.035.796.035a.616.616 0 0 0 .173.035c.354-.01.714-.017 1.06-.041.346-.024.514.054.752.091l1.069-.049c.069-.003.151-.015.212-.008.255.026.402.12.752.091.204-.016.424-.021.636-.025.056-.001.13.02.169.036.022.01 0 .033-.026.045-.078.035-.173.068-.242.104-.009.005.073.028.121.038.117.023.251.019.406.009a.907.907 0 0 1 .368.046c.039.015.026.04-.056.123 0 .061.091.034.121-.006.048-.058-.043-.077-.216-.045-.121.022-.182.055-.152.081.018.014.1.031.247-.03.38-.075.666-.089.952-.103.073-.004.16-.016.211-.009.186.03.36.067.541.1.208-.007.402-.026.606.023.285.07.298.063.575.05l.428-.021a1.34 1.34 0 0 1 .381.041c.255.06.277.06.445-.02a.411.411 0 0 1 .295-.044c.415.077.419.082.774.06.294-.02.571-.024.787.047.147.05.195.039.312-.014.311-.139.454-.136 1.038-.036.272.047.554-.004.83-.01.234-.005.398.025.416.104.013.049.052.084.207.1.061.006.134.015.195.013.359-.015.714-.033 1.073-.05.181-.01.281-.068.246-.146-.039-.083.03-.113.29-.136a1.49 1.49 0 0 1 .407.01c.138.026.099.048-.022.094-.29.11-.255.177.117.254.13.026.233.05.264.089.017.02 0 .046.039.061.212.084.506.138.834.178.316-.034.533.023.775.068.19.035.415.005.618-.008.23-.013.42-.003.584.043.117.032.238.048.381.041.285-.014.575-.022.856-.042.243-.018.424.007.576.05.19.054.402.017.601.025.268.009.402.12.753.09.207-.018.424-.024.64-.029a.595.595 0 0 1 .173.035c.229.07.497.065.792.045.203-.013.402-.026.601.022.328.08.692.15 1.038.224.048.058.013.125.259.16.13.017.251.043.351.072.121.034.233.042.389.034.281-.018.576-.022.852-.044.256-.02.416.021.571.06a.948.948 0 0 0 .394.024.92.92 0 0 1 .394.026c.177.046.19.041.778.055.061.001.134.02.169.036.017.01-.022.034-.052.047a.577.577 0 0 1-.156.036c-.64.033-1.284.062-1.925.094a.995.995 0 0 0-.181.025c-.052.014-.117.033-.117.05 0 .013.086.028.147.037.19.028.415-.015.601.017.126.022.229.052.355.072.052.008.134.007.199.005.216-.01.428-.022.644-.03.061 0 .13.012.186.022.416.075.416.075.775.059.142-.006.294-.025.428-.018.13.008.242.042.359.063.242.045.471.09.489.187.008.037.151.07.294.072.138.003.285-.01.428-.018.338-.015.338-.015.774.061.122.021.251.024.407.011.061-.005.134 0 .199.007.212.018.212.042.074.087-.195.067-.178.073.367.13.208.02.368.06.541.096.281.056.277.056.091.13-.043.016-.082.034-.126.052-.125.048-.225.101-.484.106-.286.005-.571.025-.857.039-.276.014-.35.044-.324.129.03.103.086.114.584.113.143 0 .268.01.376.044a.528.528 0 0 1-.285.078c-.355.02-.714.036-1.069.052l-.856.041c-.177.009-.29.074-.242.147.026.041.047.082.069.124.047.083.138.104.428.1.074-.001.143-.011.212-.009.281.01.415.113.753.092.281-.018.575-.022.852-.044.255-.02.398.025.575.059.061.011.126.035.178.034.359-.014.718-.028 1.068-.052.164-.01.264-.002.394.028.311.073.32.069.783.046.337-.017.341-.015.774.062.121.02.251.02.406.01.204-.012.416-.032.628-.013.065.005.147.02.168.036.013.012-.047.04-.099.048-.381.065-.826.054-1.242.08a1.051 1.051 0 0 1-.367-.05 1.129 1.129 0 0 0-.381-.041c-.285.014-.575.022-.856.042a1.804 1.804 0 0 1-.58-.05c-.056-.012-.121-.036-.177-.035-.641.025-1.285.05-1.921.085-.255.015-.402-.025-.575-.059-.061-.01-.121-.035-.178-.033-.216.005-.428.018-.644.028-.787.038-1.57.076-2.358.11-.052.003-.116-.023-.177-.034a22.708 22.708 0 0 0-.359-.066c-.216.01-.428.023-.645.03-.155.006-.294.023-.315.07-.013.032.129.06.281.058.147-.002.294-.017.415 0 .601.08.601.08.978.064.328-.015.294-.027.584.042.125.03.238.047.38.04.355-.018.714-.035 1.073-.05.056-.003.13.01.186.02.424.075.424.077.774.059.459-.023.476-.03.783.047.212.053.407.016.61.014.234.049.489.093.701.148.251.065.515.054.8.035.212-.014.42-.019.593.032.164.048.363.053.588.04.203-.01.411-.035.623-.007.056.008.143.026.138.038-.004.017-.06.042-.116.05-.398.051-.835.05-1.255.074-.056.003-.13-.01-.186-.02-.121-.023-.238-.05-.355-.073-.211.007-.428.01-.635.025-.16.011-.282.01-.398-.02-.109-.028-.225-.061-.355-.07-.13-.009-.281.01-.424.017-.143.008-.307.004-.419.024-.113.02-.182.064-.256.1-.082.038-.194.05-.359.054a1.183 1.183 0 0 1-.385-.036 1.27 1.27 0 0 0-.177-.036c-.061-.01-.13-.023-.186-.02-.645.028-1.285.06-1.929.09-.32.015-.316.015-.982-.06-.061-.005-.134-.014-.195-.012-.359.015-.714.033-1.073.05-.363.018-.359.015-.977-.063-.113-.016-.277.005-.411.002-.281-.006-.42-.111-.749-.091-.281.017-.575.02-.856.043-.255.02-.402-.023-.575-.057-.061-.012-.126-.037-.178-.034-.644.027-1.284.059-2.141.063-.212 0-.117.026.022.035.199.013.264-.013.155-.063a.601.601 0 0 0-.281-.044c-.047.005-.108.029.104.072.225.047.212.074.251.089a.989.989 0 0 0 .368.046c.216-.009.428-.021.644-.029a.958.958 0 0 1 .191.016c.475.078.48.083.986.053.16-.009.277-.009.402.015.173.033.299.088.562.07.351-.024.71-.037 1.069-.051.056-.003.117.02.181.03.178.03.308.086.571.063.204-.02.424-.024.641-.028a.42.42 0 0 1 .168.035c.052.029-.013.063-.16.087-.06.01-.142.007-.212.01-.285.015-.571.03-.856.04-.152.007-.294.026-.312.072-.013.032.143.06.29.057.217-.004.433-.014.64-.03.368-.028.688-.02.987.058.212.056.199.036.424.198.056.042.225.046.372.043.354-.006.519.013.488.051-.039.048-.164.063-.324.07-.286.01-.571.026-.856.04-.07.003-.148.01-.212.008-.065-.002-.126-.017-.182-.029-.121-.023-.225-.06-.355-.069-.13-.008-.281.01-.424.018-.142.006-.294.025-.424.016-.129-.008-.238-.046-.354-.069-.057-.01-.126-.028-.182-.027-.285.01-.571.026-.856.039-.351.016-.351.016-.775-.062a1.633 1.633 0 0 0-.406-.011c-.346.02-.351.016-.982-.056a1.133 1.133 0 0 0-.195-.013c-.645.029-1.285.06-1.925.09-.549.027-.549.027-.852.152-.225.093-.229.093-.009.135.178.035.338.087.532.105.182.018.407-.038.606.02.099.028.229.06.355.064.199.007.411-.03.601.025.095.028.238.057.359.058.212.003.428-.017.64-.026a1.49 1.49 0 0 1 .199.004c.065.007.121.022.177.035.173.042.36.062.584.041.368-.035.697-.018.982.063a.74.74 0 0 0 .195.007c.156-.012.29-.014.407.01.047.01.116.028.108.039-.013.019-.065.044-.121.05-.407.043-.844.048-1.263.07-.057.003-.126-.013-.182-.025-.121-.022-.225-.06-.355-.069-.13-.008-.281.008-.424.014-.142.006-.294.025-.424.018a1.855 1.855 0 0 1-.354-.068 1.155 1.155 0 0 0-.398-.023c-.208.017-.424.02-.636.028-.117-.024-.234-.05-.355-.073a.9.9 0 0 0-.186-.023c-.285.01-.571.025-.856.038-.286.014-.286.014-.77-.063a1.06 1.06 0 0 0-.191-.017c-.359.015-.713.034-1.072.05a1.126 1.126 0 0 1-.377-.046 1.095 1.095 0 0 0-.372-.046c-.571.026-1.142.051-1.713.082a1.78 1.78 0 0 1-.579-.044c-.182-.05-.385-.038-.597-.028-.48.025-.485.023-.792-.04-.061-.013-.121-.037-.177-.036-.498.02-.999.037-1.493.067-.259.016-.398-.028-.571-.06-.06-.012-.125-.035-.177-.033-.359.014-.718.026-1.068.052-.351.025-.485-.092-.749-.09-.359 0-.714.03-1.068.047l-.857.041c-.285.014-.571.025-.856.042a1.207 1.207 0 0 1-.389-.034c-.16-.042-.351-.074-.524-.112-.264-.054-.264-.054-.584-.039l-.212.01c-.523.028-.523.026-1.189-.053a.48.48 0 0 0-.139.02c-.091.032-.173.067-.255.101-.117-.02-.259-.031-.337-.06-.221-.081-.567.03-.792-.05a1.407 1.407 0 0 0-.355-.064c-.134-.008-.285.01-.424.017-.359.02-.359.018-.666.13-.155.055-.38.045-.584.057-.212.014-.415.021-.592-.03a1.726 1.726 0 0 0-.584-.043c-.281.02-.571.03-.857.042a1.26 1.26 0 0 1-.194-.011c-.662-.074-.662-.076-.982-.06-.143.008-.29.01-.429.022-.233.02-.41-.006-.579-.046-.056-.013-.121-.037-.178-.035-.285.006-.566.017-.847.028-.217.01-.433.014-.641.032-.346.029-.514-.053-.752-.09-.355.016-.714.027-1.069.05-.164.01-.272.006-.398-.024-.16-.038-.307-.08-.566-.062-.346.025-.71.034-1.064.05-.238-.04-.411-.119-.753-.09-.208.018-.428.022-.64.032-.286.013-.571.026-.857.041-.307.015-.303.011-.774-.063-.273-.044-.554.005-.831.013-.216.006-.324.064-.272.138.052.074-.065.131-.264.141-.497.024-.999.05-1.497.07a1.05 1.05 0 0 1-.19-.015c-.532-.079-.532-.077-.77-.066-.355.019-.718.029-1.068.053a1.67 1.67 0 0 1-.576-.053 1.189 1.189 0 0 0-.389-.033c-1.713.084-3.426.162-5.135.248-.255.013-.402-.023-.575-.057-.06-.011-.117-.035-.177-.035-.143 0-.286.011-.429.019-.64.03-1.28.066-1.924.089-.273.01-.346.067-.463.115a1.022 1.022 0 0 1-.355.056 1.258 1.258 0 0 1-.389-.034 1.643 1.643 0 0 0-.576-.051c-.281.02-.566.029-.856.043-.147.006-.26.028-.307.073-.009.008.082.027.134.038.173.038.337.082.532.108.199.026.415-.004.623-.011.073-.003.143-.01.212-.01.065.002.143.008.19.02.225.056.463.095.774.061.269.016.407.12.749.093.207-.017.424-.024.64-.03.056-.002.117.02.177.032.173.032.312.082.571.06.277-.022.571-.026.852-.043.156-.01.269-.002.39.03.155.042.333.073.575.053.208-.017.428-.02.64-.032.277-.014.277-.013.77.065.057.009.13.019.191.016.359-.015.713-.034 1.072-.049a.963.963 0 0 1 .368.047c.039.015.026.04.039.061-.714.034-1.428.063-2.137.104-.268.016-.389-.035-.567-.064-.06-.01-.125-.031-.181-.029-.502.022-.999.044-1.497.072a1.058 1.058 0 0 1-.389-.033c-.299-.096-.662-.044-.999-.03-.26.01-.342.05-.312.132.039.098.195.128.593.11.142-.006.285-.015.428-.02.138-.005.264.011.376.045.108.034.238.051.372.046.286-.01.576-.022.852-.04.23-.016.42-.003.58.043.177.051.385.04.593.029.484-.025.488-.024.791.039.061.012.121.036.178.035.497-.02.999-.035 1.488-.065.255-.015.402.025.571.057.06.011.121.037.177.034.359-.014.718-.028 1.068-.051a1.23 1.23 0 0 1 .398.026c.32.074.329.071.783.048.139-.008.29-.022.42-.012.13.01.234.047.355.07.056.01.125.023.186.02.285-.01.571-.025.856-.038.268-.014.268-.013.77.065.203.032.415.005.619-.005.22-.011.419-.011.588.037.169.05.372.047.588.037.204-.01.411-.038.619-.004.476.078.476.079.77.064.428-.021.852-.041 1.285-.06.056-.003.129.012.185.022.122.023.225.06.355.07.13.01.281-.006.42-.013.445-.024.476-.033.774.05.251.067.562-.03.796.047.134.044.316.08.567.058.207-.017.424-.022.64-.033.342-.016.342-.015.774.06a.94.94 0 0 0 .186.02c.286-.01.576-.018.852-.04.325-.027.532.02.775.067.19.036.415.006.618-.006.221-.013.42-.01.584.04.173.05.376.044.593.034.203-.01.411-.038.618-.003.446.078.446.078.77.063.286-.014.571-.029.857-.04.056-.002.125.015.181.026.122.023.225.06.355.069.13.009.281-.008.424-.014.143-.006.294-.025.424-.017.13.007.251.038.355.066.121.033.233.036.398.024.207-.016.424-.02.635-.029.117.024.238.048.351.074.117.027.242.025.402.016.532-.03.537-.026.982.052.203.035.415.006.619-.003.216-.01.419-.015.588.035.164.048.368.054.584.039.138-.01.285-.016.428-.02a.985.985 0 0 1 .191.014c.229.052.454.1.769.066.277.01.416.113.749.093.281-.018.575-.021.852-.044.255-.02.437.015.567.059.233.078.562-.028.796.049.134.044.307.079.566.06.286-.02.377.006.459.085.047.045.039.082-.048.117-.086.036-.181.03-.32-.012a1.831 1.831 0 0 0-.58-.045c-.224.01-.363-.055-.549-.08-.186-.026-.406.018-.601-.016-.459-.08-.459-.08-.77-.064-.212.01-.433.015-.64.032-.247.022-.407-.017-.576-.052-.06-.013-.121-.037-.173-.035-.497.018-.999.036-1.492.067-.26.017-.398-.028-.571-.06-.061-.011-.126-.034-.177-.031-.429.018-.853.04-1.281.061-.082.034-.173.067-.251.103-.082.038-.194.054-.359.053-.272 0-.54.052-.813-.014-.281-.068-.303-.064-.575-.048-.346.022-.714.017-1.038.065-.057.01-.117.033-.117.05-.005.012.086.028.143.038.19.03.41-.014.601.018.125.02.229.05.354.071.052.009.13.008.199.006.074 0 .143-.01.212-.008.065 0 .135.008.187.02.237.047.488.091.7.147.208.056.402.018.61.015.831.088.831.09 1.389.062.138-.006.281-.014.424-.013.06 0 .116.023.177.036.173.037.337.07.58.05.207-.017.428-.02.64-.032.285-.013.285-.013.77.065.121.02.251.018.406.008a.931.931 0 0 1 .368.046c.039.015.026.04.039.062-.428.02-.861.034-1.276.064-.268.018-.389-.036-.567-.064-.06-.01-.125-.032-.181-.03-.424.02-.848.041-1.272.066-.052.002-.117.031-.121.049-.009.033.099.064.255.063.207-.002.411-.023.597.028.156.045.35.066.579.045.139-.01.286-.01.424-.02.368-.03.701-.025.978.06.212.023.42.002.623-.01.151-.008.298-.017.406.007.23.05.455.1.77.066.342.035.602.11.887.17.134.028.238.044.394.026.065-.008.143-.008.212-.012.143-.006.294-.025.424-.017.13.009.238.045.354.068.057.01.122.03.178.028.216-.006.428-.018.64-.028l.636-.027.536.098c.286-.014.571-.028.852-.04.316-.015.316-.014.77.064.204.035.42.012.615-.004.324-.026.54.021.77.071a.78.78 0 0 0 .19.012 1.68 1.68 0 0 1 .584.042c.117.033.233.048.376.042.498-.024.995-.05 1.493-.07a.903.903 0 0 1 .186.018c.441.077.445.08.769.06.29-.017.559-.025.788.044a.612.612 0 0 0 .173.035c.354-.012.714-.026 1.064-.047.16-.01.272-.006.398.022.16.037.303.08.567.064.731-.046.735-.039 1.6.048.061.006.143-.004.212-.009.147-.012.255.005.385.034.29.065.298.061.575.047.212-.01.433-.013.64-.032.321-.028.533.021.77.068.191.036.411.006.615-.006.22-.012.419-.008.584.04.112.032.233.05.376.043.497-.022.995-.047 1.492-.07.061-.002.134.008.191.016.493.078.493.082.982.053.155-.009.285-.011.402.015.112.025.234.049.35.073.212-.01.429-.012.636-.027.16-.01.273-.006.398.02.164.034.303.093.562.064.135-.014.29-.01.424-.022.16-.017.269-.007.394.026.156.039.316.079.567.059.276-.023.571-.026.852-.044.155-.01.264 0 .389.033.156.041.333.067.575.051.494-.031.498-.025.978.054.121.02.251.018.407.007a.926.926 0 0 1 .367.047c.091.04.082.065.091.086Zm-38.546-11.3c-.143.006-.285.014-.493-.095-.013-.02-.004-.042-.034-.058a.793.793 0 0 0-.308-.061c-.233-.005-.514.037-.51.07.004.027.078.051.221.074.06.008.108.024.164.034.164.028.294.085.532.056-.043-.078-.022-.039 0 0-.022.048.043.081.199.095a.59.59 0 0 0 .143-.006c.134-.028.155-.065.056-.164-.017.016-.004.045.035.052a.69.69 0 0 0 .181-.007c.121-.024.182-.055.152-.082a.39.39 0 0 0-.152-.03c-.091 0-.173.027-.186.122Zm34.977 14.53c-.315.024-.679.015-.994.064-.057.009-.113.032-.117.05-.005.01.082.027.134.036.117.02.246.013.398.007.229-.009.363.049.541.078.056.008.129.015.19.012.35-.015.696-.031 1.047-.049.06-.003.125-.012.177-.023.173-.037.156-.06-.013-.088-.186-.03-.333-.08-.523-.104-.273-.034-.55.011-.84.017Zm-24.565.915-.632.03c-.069.004-.142.005-.207.01a.65.65 0 0 0-.299.076c.1.033.221.052.355.048.212-.007.42-.024.632-.027.229-.005.363.051.54.08.057.009.126.01.191.011.32.005.514-.06.454-.151-.043-.072-.208-.115-.407-.106l-.627.029Zm26.045-2.767c.052-.02.108-.036.134-.055.078-.063.048-.111-.095-.161-.173-.062-.385-.02-.58-.014a.278.278 0 0 0-.125.044c-.018.011-.018.035.008.041.212.05.437.097.658.146Zm-37.525-3.7c-.208.01-.42.017-.627.03a.333.333 0 0 0-.13.045c-.056.03.004.07.181.075.204.005.416-.017.628-.027.268-.012.428-.059.328-.099a.758.758 0 0 0-.38-.025ZM26.451 7.75c.139-.007.282-.012.42-.02a.64.64 0 0 0 .294-.078 1.143 1.143 0 0 0-.363-.046c-.212.007-.42.017-.627.03-.13.007-.256.035-.286.077-.03.033.26.052.562.037Zm209.406-.193c.056.011.112.034.168.034.139 0 .281-.008.411-.02a.272.272 0 0 0 .126-.046c.017-.01.013-.03-.013-.04-.126-.061-.628-.04-.71.03-.008.012.013.028.018.042ZM222.209.697c.013.02.017.04.035.06.034.037.129.065.268.084.108-.032.164-.067.16-.104a.135.135 0 0 0-.035-.06c-.034-.038-.129-.066-.268-.084-.108.03-.16.065-.16.104Zm79.462 16.417a1.7 1.7 0 0 1-.121.048.604.604 0 0 0 .308.027c.051-.012.082-.031.121-.047a.616.616 0 0 0-.308-.028Zm-2.69.17c.056.012.108.027.169.034a.384.384 0 0 0 .259-.054c-.056-.01-.108-.026-.169-.033a.383.383 0 0 0-.259.053Zm1.704-.229c-.03.03.031.055.191.077.039-.017.09-.032.116-.05.044-.028-.03-.054-.186-.075l-.121.048Zm-9.131-1.35c-.031.03.03.055.19.076.039-.016.091-.031.117-.049.043-.029-.03-.055-.186-.075-.043.015-.082.031-.121.047Zm-12.441-8.866c-.039.016-.078.032-.121.047a.602.602 0 0 0 .307.028c.052-.013.082-.032.121-.048a.612.612 0 0 0-.307-.027Zm-11.917-4.704a.414.414 0 0 0 .264-.055c-.056-.011-.108-.026-.169-.034a.384.384 0 0 0-.259.054l.164.035Zm-6.328-.294c-.039.016-.078.032-.122.047a.605.605 0 0 0 .308.028c.051-.013.082-.032.121-.048a.627.627 0 0 0-.307-.027ZM217.953.695c-.039.017-.078.033-.121.048a.601.601 0 0 0 .307.028c.052-.013.082-.032.121-.048a.627.627 0 0 0-.307-.028ZM4.269 10.89a4.528 4.528 0 0 1-.164-.035c-.125.034-.164.065-.095.09.043.014.108.023.164.034.13-.034.16-.064.095-.089Z"/>
  <path fill="#4F9CF9" d="M29.358 6.465c-.498.024-.99.054-1.488.069-.264.007-.36.061-.467.111-.087.04-.186.053-.346.06-1.35.062-2.695.127-4.04.191-.17-.016-.252-.043-.212-.074a.232.232 0 0 1 .125-.048c.921-.046 1.838-.094 2.764-.13.264-.01.337-.065.472-.11.043-.015.077-.038.134-.046.056-.01.138-.01.212-.012l4.464-.213c.168.017.25.043.212.074a.232.232 0 0 1-.126.048c-.57.026-1.138.052-1.704.08ZM301.728 13.137c-.225.015-.51.037-.744-.036a1.064 1.064 0 0 0-.38-.039c-.212.013-.429.023-.645.03a.948.948 0 0 1-.186-.024c-.121-.022-.225-.06-.355-.07-.129-.01-.285.018-.419.011-.178-.008-.251-.042-.204-.074a.293.293 0 0 1 .135-.046c.8-.046.804-.046 1.029-.001.173.035.333.074.58.053.207-.018.428-.022.64-.033.294-.015.294-.014.77.065.121.02.251.019.406.008.135-.01.264.01.372.045a.646.646 0 0 1-.302.077c-.217.013-.429.022-.697.034ZM293.766 12.751c.545-.026 1.094-.049 1.639-.079a1.73 1.73 0 0 1 .558.044c.169.046.359.043.567.034a.87.87 0 0 1 .342.05c.034.014.025.039.038.059-.475.023-.956.046-1.436.066a.818.818 0 0 1-.177-.02c-.117-.021-.216-.059-.342-.066-.268-.018-.536.016-.809.022a.94.94 0 0 1-.341-.05c-.035-.016-.026-.04-.039-.06ZM96.796 1.978l1.7-.081c.169.017.247.042.212.074a.233.233 0 0 1-.126.047c-1.133.057-2.266.11-3.395.165-.169-.018-.247-.043-.212-.074a.232.232 0 0 1 .125-.048c.563-.029 1.13-.055 1.696-.083ZM9.478 8.941c-.255.003-.523.05-.809.014-.056-.006-.134-.026-.13-.037.009-.02.06-.043.117-.05.247-.032.554-.036.68-.123.06-.045.172-.06.324-.07.16-.01.272-.006.397.02.165.035.303.097.563.065.013.02.043.042.03.061-.013.019-.069.036-.12.05a.956.956 0 0 1-.174.028c-.286.015-.571.027-.878.042ZM234.447 8.69c.212-.01.433-.016.64-.033.165-.014.269-.005.398.025.221.052.234.047.775.055.06.001.134.02.168.036.022.009-.008.033-.034.045a.407.407 0 0 1-.147.038c-.342.004-.688.078-1.021-.008a1.743 1.743 0 0 0-.584-.043c-.139.01-.286.016-.428.02a.941.941 0 0 1-.368-.045c-.125-.056-.052-.077.173-.073.143.002.286-.011.428-.018ZM312.843 17.326c.273-.013.545-.028.822-.038.057-.002.126.012.178.02.207.038.177.102.186.158.004.06-.476.107-.679.067-.225-.045-.429-.097-.74-.07a.77.77 0 0 1-.342-.048c-.117-.053-.052-.074.169-.07.13.002.268-.011.406-.019ZM175.514.272c.281-.014.562-.035.843-.036.165-.002.247.04.208.07a.235.235 0 0 1-.126.047c-.562.03-1.124.056-1.687.083-.164-.017-.246-.044-.207-.074a.238.238 0 0 1 .125-.047c.281-.018.562-.03.844-.043ZM307.45 13.248c.272-.013.549-.032.822-.038.142-.003.255.026.272.059.009.015-.06.041-.117.047-.389.043-.809.048-1.215.07a.844.844 0 0 1-.346-.05c-.117-.053-.052-.073.169-.07.138.002.276-.012.415-.018ZM241.592 8.858c.139-.006.281-.022.415-.017.143.006.234.042.277.079.048.041.043.08 0 .115-.069.06-.138.058-.298.018-.247-.063-.264-.056-.753-.053a.543.543 0 0 1-.169-.035c-.065-.025-.03-.064.121-.087.113-.016.269-.013.407-.02Z"/>
  <path fill="#4F9CF9" d="M297.315 12.837c.203-.01.406-.027.61-.027.142 0 .255.028.268.06.004.014-.061.04-.113.047-.246.034-.523.036-.791.047a.856.856 0 0 1-.342-.05c-.117-.052-.047-.076.164-.069.065.003.135-.005.204-.008ZM265.318 11.3c-.303.014-.588-.004-.567-.037.03-.043.156-.07.286-.078.207-.012.415-.022.627-.03.134-.005.255.014.363.047a.655.655 0 0 1-.294.077c-.134.009-.277.014-.415.02ZM263.334 11.139c.204-.01.407-.026.61-.026.143-.002.255.027.268.058.005.015-.06.04-.112.048-.247.034-.524.036-.792.048a.852.852 0 0 1-.341-.05c-.117-.053-.048-.077.164-.07.065.003.134-.005.203-.008ZM239.139 8.849c.203-.01.407-.027.61-.028.143-.001.255.028.268.059.004.015-.06.039-.112.047-.247.034-.524.037-.792.048a.859.859 0 0 1-.342-.05c-.117-.053-.047-.076.165-.069.064.003.134-.005.203-.007Z"/>
  <path fill="#4F9CF9" d="M238.002 8.775c.217-.01.286-.017.355-.017.13 0 .264.015.342.052.117.052.047.067-.165.07-.272.002-.54.029-.813.034-.143.002-.255-.028-.264-.06-.004-.014.061-.04.113-.046.181-.018.38-.03.432-.033ZM261.572 1.403c-.138.007-.285.024-.415.018-.173-.009-.242-.043-.199-.074a.27.27 0 0 1 .125-.046c.277-.018.558-.03.835-.042.165.019.238.045.195.077a.29.29 0 0 1-.126.046c-.134.012-.277.015-.415.021ZM93.693 2.126a1.21 1.21 0 0 1 .359.046.668.668 0 0 1-.29.078 3.633 3.633 0 0 1-.208.01 1.17 1.17 0 0 1-.359-.046.687.687 0 0 1 .29-.078c.065-.005.139-.006.208-.01ZM305.973 13.243c-.005-.037.259-.078.497-.077a.914.914 0 0 1 .329.053c.112.051.047.071-.165.068-.129-.003-.268.018-.397.014-.148 0-.234-.028-.264-.058ZM242.845 9.01c-.004-.014-.026-.03-.013-.043.082-.068.58-.09.71-.03.021.012.03.03.013.042a.29.29 0 0 1-.126.045 4.905 4.905 0 0 1-.411.02c-.06 0-.117-.021-.173-.034ZM11.017 8.74c-.51.027-.519.024-.428-.038.082-.057.234-.09.454-.09.065 0 .134-.003.19.002.061.006.148.019.16.034.027.029-.047.06-.177.081-.056.01-.13.008-.199.012ZM100.083 1.95a.734.734 0 0 1-.377-.027c-.095-.04.057-.087.32-.099.07-.002.143-.012.208-.007a.61.61 0 0 1 .169.034c.069.025.026.059-.113.087-.056.012-.138.01-.207.012ZM305.072 13.148c.038-.016.077-.032.121-.047.16.021.229.046.186.075-.026.018-.078.033-.117.049-.16-.021-.225-.048-.19-.077ZM17.87 23.004c0-.015.06-.039.107-.044a.604.604 0 0 1 .281.044c.108.05.044.076-.155.063-.139-.01-.234-.035-.234-.063ZM244.608 7.843c.056.012.112.023.164.036a.387.387 0 0 1-.259.053c-.061-.007-.113-.022-.169-.033a.412.412 0 0 1 .264-.056ZM243.111 7.787a.631.631 0 0 1 .311.027c-.039.017-.073.035-.121.048a.588.588 0 0 1-.307-.028l.117-.047ZM241.963 7.842c.056.011.113.023.164.035a.382.382 0 0 1-.259.054c-.061-.007-.113-.022-.169-.034a.406.406 0 0 1 .264-.055ZM241.121 7.776c.064.025.03.055-.096.089-.056-.012-.121-.02-.164-.035-.069-.024-.035-.055.095-.09.052.013.108.025.165.036Z"/>
</svg>
